<?xml version="1.0" encoding="UTF-8"?>
<!DOCTYPE svg PUBLIC "-//W3C//DTD SVG 1.1//EN" "http://www.w3.org/Graphics/SVG/1.1/DTD/svg11.dtd">
<svg xmlns="http://www.w3.org/2000/svg" xmlns:xlink="http://www.w3.org/1999/xlink" version="1.1" width="341px" height="192px" viewBox="-0.5 -0.5 341 192"><defs/><g><rect x="0" y="0" width="340" height="190" rx="28.5" ry="28.5" fill="none" stroke="none" pointer-events="all"/><path d="M 7.2 7.04 C 7.2 7.04 7.2 7.04 7.2 7.04 M 7.2 7.04 C 7.2 7.04 7.2 7.04 7.2 7.04 M 3.66 17.21 C 7.46 14.29 11.54 9.02 16.78 2.12 M 3.66 17.21 C 6.09 13.61 9.87 10.13 16.78 2.12 M 2.74 24.36 C 6.88 17.5 15.17 11 22.42 1.72 M 2.74 24.36 C 10.45 16.22 15.71 8.71 22.42 1.72 M 3.13 30.01 C 11.03 21.9 19.95 9.75 28.72 0.57 M 3.13 30.01 C 11.83 19.61 21.21 10.07 28.72 0.57 M 2.87 36.4 C 14.74 23.26 23.07 10.23 34.36 0.18 M 2.87 36.4 C 9.38 28.77 16.14 20.39 34.36 0.18 M 3.27 42.05 C 17.49 26.02 30.01 13.1 39.35 0.54 M 3.27 42.05 C 16.3 26.94 29.37 13.53 39.35 0.54 M 3.01 48.45 C 14.67 34.43 30.36 18.14 44.99 0.14 M 3.01 48.45 C 20.84 28.85 37.4 10.11 44.99 0.14 M 2.74 54.84 C 23.17 34.77 40.36 11.34 49.98 0.5 M 2.74 54.84 C 13.12 43.91 22.32 31.86 49.98 0.5 M 3.14 60.49 C 19.52 41 37.75 18.71 55.62 0.11 M 3.14 60.49 C 12.98 47.45 24.8 34.15 55.62 0.11 M 2.88 66.88 C 23.38 44.25 45.55 16.72 60.61 0.47 M 2.88 66.88 C 21.91 44.07 39.55 22.61 60.61 0.47 M 2.62 73.28 C 16.09 55.22 29.43 39.34 66.25 0.08 M 2.62 73.28 C 21.17 53.42 38.62 30.87 66.25 0.08 M 3.01 78.93 C 28.7 47.58 55.72 20.83 71.24 0.44 M 3.01 78.93 C 20.64 57.87 37.66 39.53 71.24 0.44 M 2.75 85.32 C 21.38 62.65 39.01 41.22 76.88 0.04 M 2.75 85.32 C 22.7 64.64 40.09 41.83 76.88 0.04 M 2.49 91.72 C 35.15 55.68 67.17 21.23 81.87 0.4 M 2.49 91.72 C 17.84 72.21 35.56 54.03 81.87 0.4 M 2.88 97.36 C 29.62 66.1 57.07 33.95 87.51 0.01 M 2.88 97.36 C 22.66 74.97 42.41 52.18 87.51 0.01 M 2.62 103.76 C 35.44 69.74 62.8 32.64 92.5 0.37 M 2.62 103.76 C 36.32 64.58 70.09 25.68 92.5 0.37 M 3.02 109.4 C 32.19 79.28 58.42 48.81 97.49 0.73 M 3.02 109.4 C 38.52 69.18 73.71 28.54 97.49 0.73 M 2.75 115.8 C 25 88.38 47.91 62.79 103.13 0.33 M 2.75 115.8 C 40.65 69.53 79.81 24.14 103.13 0.33 M 2.49 122.2 C 44.91 74.49 82.94 29.26 108.12 0.69 M 2.49 122.2 C 39.18 82.25 75.09 40.97 108.12 0.69 M 2.89 127.84 C 29.17 103.3 51.1 72.38 113.76 0.3 M 2.89 127.84 C 28.92 96.59 55.53 65.72 113.76 0.3 M 2.63 134.24 C 45.36 84.14 88.51 37.77 118.75 0.66 M 2.63 134.24 C 46.23 84.9 89.3 34.11 118.75 0.66 M 2.36 140.64 C 45.59 93.3 87.42 44.35 124.39 0.26 M 2.36 140.64 C 48.24 85.34 95.02 32.45 124.39 0.26 M 2.76 146.28 C 35.56 111.33 62.79 79.35 129.38 0.62 M 2.76 146.28 C 33.5 110.45 65.39 74.73 129.38 0.62 M 2.5 152.68 C 31.14 119.32 61.63 85.67 135.02 0.23 M 2.5 152.68 C 33.22 119.18 60.92 86.81 135.02 0.23 M 0.27 161.34 C 39.72 116.9 78.04 71.97 140.01 0.59 M 0.27 161.34 C 49.93 106.28 96.39 51.73 140.01 0.59 M 0.66 166.98 C 44.92 115.16 88.91 64.25 145.65 0.19 M 0.66 166.98 C 33.66 129.17 64.35 92.57 145.65 0.19 M 1.71 171.87 C 35.19 134.39 66.25 98.67 150.64 0.55 M 1.71 171.87 C 51.23 113.01 100.48 55.94 150.64 0.55 M 3.42 176.01 C 38.9 132.39 76.17 90.45 156.28 0.16 M 3.42 176.01 C 34.68 137.76 67.25 100.96 156.28 0.16 M 5.13 180.14 C 48.82 128.66 92.37 79.94 161.27 0.52 M 5.13 180.14 C 55.51 124.23 105.43 66.43 161.27 0.52 M 8.15 182.76 C 61.54 121.44 115.39 59.72 166.91 0.13 M 8.15 182.76 C 51.85 133.95 94.21 85.34 166.91 0.13 M 11.16 185.39 C 60.04 128.09 112.99 69.28 171.9 0.49 M 11.16 185.39 C 57.46 131.49 105.44 77.52 171.9 0.49 M 14.18 188.01 C 53.73 139.87 96.85 90.31 177.54 0.09 M 14.18 188.01 C 52.56 142.52 92.1 98.67 177.54 0.09 M 17.86 189.88 C 67.36 131.36 116.45 75.35 182.53 0.45 M 17.86 189.88 C 60.13 139.67 102.35 92.24 182.53 0.45 M 22.84 190.24 C 80.64 125.33 139.28 57.14 188.17 0.06 M 22.84 190.24 C 56.66 150.78 90.58 111.8 188.17 0.06 M 27.83 190.6 C 65.38 152.22 101.06 111.03 193.16 0.42 M 27.83 190.6 C 83.22 128.19 138.34 63.73 193.16 0.42 M 31.51 192.47 C 83.18 130.87 131.83 74.37 198.8 0.02 M 31.51 192.47 C 72.75 146.56 115.08 98.02 198.8 0.02 M 36.49 192.83 C 99.12 125.44 156.84 54.06 203.79 0.38 M 36.49 192.83 C 77.31 145.06 117.32 98.76 203.79 0.38 M 42.14 192.44 C 93.33 133.98 145.4 75.35 209.43 -0.01 M 42.14 192.44 C 86.09 141.62 130.21 90.83 209.43 -0.01 M 47.12 192.8 C 91.35 142.01 131.38 94.72 214.42 0.35 M 47.12 192.8 C 79.99 151.66 115.71 111.58 214.42 0.35 M 52.77 192.4 C 101.43 136.81 151.54 78.19 219.41 0.71 M 52.77 192.4 C 105.43 130.56 159.52 68.73 219.41 0.71 M 57.75 192.76 C 113.13 128.03 167.59 65.5 225.05 0.31 M 57.75 192.76 C 103.71 139.76 148.5 87.6 225.05 0.31 M 63.4 192.37 C 109.97 138.34 157.29 85.8 230.04 0.67 M 63.4 192.37 C 120.91 124.86 179.91 57.05 230.04 0.67 M 68.38 192.73 C 108.56 144.9 152.45 95.86 235.68 0.28 M 68.38 192.73 C 131.3 118.77 195.12 46.42 235.68 0.28 M 74.03 192.33 C 111.41 148.65 149.5 103.78 240.67 0.64 M 74.03 192.33 C 115.78 143.14 157.47 94.95 240.67 0.64 M 79.01 192.69 C 144.13 118.36 208.05 42.34 246.31 0.24 M 79.01 192.69 C 124.05 138.7 171.98 83.15 246.31 0.24 M 84.66 192.3 C 148.31 118.29 215.53 43.78 251.3 0.6 M 84.66 192.3 C 144.91 124.27 203.53 55.07 251.3 0.6 M 89.64 192.66 C 141.64 132.78 196.2 71.61 256.94 0.21 M 89.64 192.66 C 131.59 146.82 170.81 100.12 256.94 0.21 M 95.29 192.27 C 157.36 120 217.64 52.03 261.93 0.57 M 95.29 192.27 C 156.81 122.74 218.1 51.65 261.93 0.57 M 100.27 192.63 C 158.35 122.81 217.16 53.72 267.57 0.17 M 100.27 192.63 C 156.59 130.4 211.12 66.57 267.57 0.17 M 105.92 192.23 C 145.62 148.87 184.96 105.1 272.56 0.53 M 105.92 192.23 C 149.07 144.83 190.37 97.59 272.56 0.53 M 110.9 192.59 C 146.51 150.87 184.04 109.11 278.2 0.14 M 110.9 192.59 C 161.11 130.64 213.6 71.18 278.2 0.14 M 116.55 192.2 C 156.91 145.59 197.45 100.43 283.19 0.5 M 116.55 192.2 C 168.63 130.97 222.16 69.4 283.19 0.5 M 121.53 192.56 C 181.03 127.45 238.85 59.41 288.83 0.11 M 121.53 192.56 C 187.39 117.62 252.64 42.92 288.83 0.11 M 126.52 192.92 C 178.3 136.81 228.74 79.32 293.82 0.47 M 126.52 192.92 C 185.59 125.6 243.87 57.3 293.82 0.47 M 132.16 192.52 C 198.33 117.42 266.28 38.55 299.46 0.07 M 132.16 192.52 C 170.49 147.36 210.24 102.33 299.46 0.07 M 137.15 192.88 C 185.56 139.1 234.26 84.02 304.45 0.43 M 137.15 192.88 C 182.56 138.9 229.24 85.81 304.45 0.43 M 142.79 192.49 C 200.28 124.79 259.02 59.35 310.09 0.04 M 142.79 192.49 C 203.63 120.19 265.37 50.31 310.09 0.04 M 147.78 192.85 C 206.11 126.91 261.83 63.98 313.76 1.91 M 147.78 192.85 C 197.57 137.71 244.77 82.55 313.76 1.91 M 153.42 192.45 C 213.84 119.78 279.59 47.53 319.41 1.51 M 153.42 192.45 C 214.78 119.91 279.13 46.36 319.41 1.51 M 158.41 192.81 C 219.4 118.57 282.07 47.42 323.74 2.63 M 158.41 192.81 C 214.4 128.23 271.37 63.17 323.74 2.63 M 164.05 192.42 C 198.45 152.54 232.82 110.76 327.41 4.5 M 164.05 192.42 C 211.53 136.67 261.74 79.69 327.41 4.5 M 169.04 192.78 C 229.85 121.99 289.62 51.73 331.09 6.37 M 169.04 192.78 C 206.16 148.79 245.32 105.03 331.09 6.37 M 174.68 192.38 C 231.22 125.74 290.88 59.04 334.11 8.99 M 174.68 192.38 C 214.71 149.62 253.23 104.37 334.11 8.99 M 179.67 192.74 C 224.87 140.91 271.28 87.92 337.13 11.61 M 179.67 192.74 C 234.45 131.46 287.42 70.84 337.13 11.61 M 185.31 192.35 C 230.62 143.5 273.35 91.52 338.18 16.5 M 185.31 192.35 C 235.93 133.01 288.7 73.67 338.18 16.5 M 190.3 192.71 C 238.46 138.09 287.25 79.88 339.23 21.39 M 190.3 192.71 C 230.35 144.98 270.74 98.71 339.23 21.39 M 195.95 192.32 C 228.56 156.19 258.88 117.59 339.62 27.03 M 195.95 192.32 C 230.11 153.11 265 114.18 339.62 27.03 M 200.93 192.68 C 239.01 149.65 275.73 107.9 341.98 30.41 M 200.93 192.68 C 231.47 157.69 260.53 121.8 341.98 30.41 M 206.58 192.28 C 256.68 137.21 307.32 77.94 342.38 36.06 M 206.58 192.28 C 257.41 134.92 308.77 78.31 342.38 36.06 M 211.56 192.64 C 258.79 141.86 304.49 85.75 342.12 42.45 M 211.56 192.64 C 237.49 161.26 264.76 128.55 342.12 42.45 M 217.21 192.25 C 254.83 148.41 292.66 104.38 341.86 48.85 M 217.21 192.25 C 255.18 149.27 293.33 105.79 341.86 48.85 M 222.19 192.61 C 247.63 163.78 269.97 133.56 342.25 54.49 M 222.19 192.61 C 252.05 159.41 281.65 123.87 342.25 54.49 M 227.84 192.21 C 268.92 149.23 309.39 99.99 341.99 60.89 M 227.84 192.21 C 272.75 140.75 317.33 90.45 341.99 60.89 M 232.82 192.57 C 268.44 151.35 302.78 113.36 342.38 66.54 M 232.82 192.57 C 276.57 142 318.77 93.14 342.38 66.54 M 238.47 192.18 C 262.57 166.76 286.53 137.79 342.12 72.93 M 238.47 192.18 C 269.26 154.88 301.74 116.85 342.12 72.93 M 243.45 192.54 C 275.79 155.77 305.23 117.78 341.86 79.33 M 243.45 192.54 C 268.39 164.68 292.03 138.31 341.86 79.33 M 248.44 192.9 C 284.51 151.57 319.85 109 342.26 84.97 M 248.44 192.9 C 280.09 156.25 311.04 118.34 342.26 84.97 M 254.08 192.5 C 285.18 156.92 316.32 119.87 341.99 91.37 M 254.08 192.5 C 278.75 165.15 302.53 138.23 341.99 91.37 M 259.07 192.86 C 284.41 164.97 308.27 136.56 342.39 97.01 M 259.07 192.86 C 282.19 169.06 302.69 144.47 342.39 97.01 M 264.71 192.47 C 286.16 168.73 308.4 142.96 342.13 103.41 M 264.71 192.47 C 289.15 163.57 311.78 136.52 342.13 103.41 M 269.7 192.83 C 293.36 164.83 316.58 137.98 341.87 109.81 M 269.7 192.83 C 288.54 171.24 307.8 149.05 341.87 109.81 M 275.34 192.43 C 290.98 173.96 310.55 153.75 342.26 115.45 M 275.34 192.43 C 290.97 172.62 307.09 155.78 342.26 115.45 M 280.33 192.79 C 295.49 174.6 313.89 152.92 342 121.85 M 280.33 192.79 C 296.45 174.05 312.25 156.67 342 121.85 M 285.97 192.4 C 308.83 166.95 331.54 140.99 342.39 127.49 M 285.97 192.4 C 302.49 172.91 320.18 153.22 342.39 127.49 M 290.96 192.76 C 303.44 178.15 317.01 162.59 342.13 133.89 M 290.96 192.76 C 308.95 172.8 328.46 151.01 342.13 133.89 M 296.6 192.36 C 309.54 178.02 322.14 160.48 341.87 140.29 M 296.6 192.36 C 305.6 181.61 315.63 170.68 341.87 140.29 M 301.59 192.72 C 309.2 182.98 317.09 174.7 342.27 145.93 M 301.59 192.72 C 315.78 176.11 329.77 159.29 342.27 145.93 M 307.23 192.33 C 316.55 180.96 330.94 168.56 342 152.33 M 307.23 192.33 C 313.59 183.05 320.68 175 342 152.33 M 313.53 191.18 C 323.45 180.22 334.88 167.82 342.4 157.97 M 313.53 191.18 C 321.51 181.42 330.39 171.48 342.4 157.97 M 319.18 190.79 C 326.77 183.5 330.14 177.62 342.79 163.62 M 319.18 190.79 C 324.34 184.96 329.7 178.82 342.79 163.62 M 325.47 189.64 C 331.07 185.53 331.69 182.44 341.88 170.77 M 325.47 189.64 C 331.59 183.99 335.53 177.02 341.88 170.77" fill="none" stroke="#f5f5f5" stroke-linejoin="round" stroke-linecap="round" stroke-miterlimit="10" pointer-events="all"/><path d="M 28.5 0 M 28.5 0 C 115.97 1.36 203.5 2.14 311.5 0 M 28.5 0 C 114.44 -0.84 200.88 -1.84 311.5 0 M 311.5 0 C 331.54 0.49 340.72 8.47 340 28.5 M 311.5 0 C 332.5 -0.68 341.4 10.8 340 28.5 M 340 28.5 C 337.41 73.32 341.05 122.38 340 161.5 M 340 28.5 C 338.79 72.12 339.44 116.65 340 161.5 M 340 161.5 C 341.77 182.22 330.9 188.92 311.5 190 M 340 161.5 C 340.41 181.7 331.36 191.65 311.5 190 M 311.5 190 C 201.81 189.5 88.6 190.98 28.5 190 M 311.5 190 C 252.66 189.59 193.7 188.9 28.5 190 M 28.5 190 C 7.96 188.12 1.36 182.26 0 161.5 M 28.5 190 C 11.2 188.51 -1.45 178.79 0 161.5 M 0 161.5 C 0.47 117.52 -0.07 73.75 0 28.5 M 0 161.5 C -0.48 111.69 0.17 62.11 0 28.5 M 0 28.5 C 0.78 7.67 10.47 -1.98 28.5 0 M 0 28.5 C -1 8.4 10.42 -0.89 28.5 0" fill="none" stroke="#666666" stroke-linejoin="round" stroke-linecap="round" stroke-miterlimit="10" pointer-events="all"/><path d="M 170 0 L 170 80 L 170 190" fill="none" stroke="none" pointer-events="stroke"/><path d="M 170 0 M 170 0 C 168.08 21.57 169.08 43.86 170 80 M 170 0 C 170.5 20.01 170.22 40.31 170 80 M 170 80 C 170 113.45 168.84 145.51 170 190 M 170 80 C 170.78 120.97 171.37 164.12 170 190" fill="none" stroke="rgb(0, 0, 0)" stroke-linejoin="round" stroke-linecap="round" stroke-miterlimit="10" stroke-dasharray="3 3" pointer-events="stroke"/><rect x="10" y="10" width="150" height="80" rx="12" ry="12" fill="none" stroke="none" pointer-events="all"/><path d="M 22 10 M 22 10 C 57.51 8.44 91.29 9.37 148 10 M 22 10 C 62.95 8.87 105.6 9.88 148 10 M 148 10 C 156.63 8.51 160.92 13.64 160 22 M 148 10 C 154.88 11.54 161.35 15.24 160 22 M 160 22 C 157.88 45.32 160.48 67.11 160 78 M 160 22 C 158.99 36.32 159.08 48.64 160 78 M 160 78 C 161.57 87.24 157.41 90.5 148 90 M 160 78 C 160.24 84.57 157.08 88.8 148 90 M 148 90 C 121.69 91.38 94.88 91.02 22 90 M 148 90 C 106.2 88.41 63.22 88.97 22 90 M 22 90 C 15.21 88.58 10.67 84.75 10 78 M 22 90 C 15.31 90.21 10.99 86.9 10 78 M 10 78 C 11.43 55.76 11.12 37.7 10 22 M 10 78 C 9.26 55.69 9.83 33.83 10 22 M 10 22 C 9.46 13.22 12.24 9.71 22 10 M 10 22 C 10.59 14.04 12.01 8.38 22 10" fill="none" stroke="rgb(0, 0, 0)" stroke-linejoin="round" stroke-linecap="round" stroke-miterlimit="10" pointer-events="all"/><rect x="10" y="100" width="150" height="80" rx="12" ry="12" fill="none" stroke="none" pointer-events="all"/><path d="M 22 100 M 22 100 C 56.37 102.41 88.97 99.54 148 100 M 22 100 C 48.01 100.84 72.12 101.07 148 100 M 148 100 C 157.33 101.04 159.8 103.26 160 112 M 148 100 C 157.38 99.8 157.71 104.67 160 112 M 160 112 C 161.72 125.35 159.88 135.9 160 168 M 160 112 C 159.66 124.41 160.49 137.88 160 168 M 160 168 C 160.17 177.64 155.9 180.78 148 180 M 160 168 C 160.85 176.93 155.71 181.91 148 180 M 148 180 C 118.77 179.16 89.96 182.81 22 180 M 148 180 C 103.01 178.06 58 179.98 22 180 M 22 180 C 15.32 180.29 8.49 177.28 10 168 M 22 180 C 14.84 177.89 10.84 174.7 10 168 M 10 168 C 8.86 153.81 10.54 140.85 10 112 M 10 168 C 10.16 152.25 9.96 138 10 112 M 10 112 C 11.89 103.22 12.69 100.4 22 100 M 10 112 C 12.27 104.27 15.33 98.35 22 100" fill="none" stroke="rgb(0, 0, 0)" stroke-linejoin="round" stroke-linecap="round" stroke-miterlimit="10" pointer-events="all"/><path d="M 235 36.25 L 301.3 36.29 Q 311.3 36.3 311.28 46.3 L 311.26 59.38" fill="none" stroke="none" pointer-events="stroke"/><path d="M 311.25 66.38 L 307.76 59.38 L 314.76 59.39 Z" fill="none" stroke="none" pointer-events="all"/><path d="M 235 36.25 M 235 36.25 C 255.04 37.2 278.68 34.9 301.3 36.29 M 235 36.25 C 257.08 36.39 278.23 36.37 301.3 36.29 M 301.3 36.29 C 306.35 36.07 309.39 40.87 311.28 46.3 M 301.3 36.29 C 306.22 35.13 309.73 38.46 311.28 46.3 M 311.28 46.3 C 312.57 51.03 310.37 55.41 311.26 59.38 M 311.28 46.3 C 311.72 51.2 311.87 54.59 311.26 59.38" fill="none" stroke="rgb(0, 0, 0)" stroke-linejoin="round" stroke-linecap="round" stroke-miterlimit="10" pointer-events="stroke"/><path d="M 307.97 59.14 C 307.97 59.14 307.97 59.14 307.97 59.14 M 307.97 59.14 C 307.97 59.14 307.97 59.14 307.97 59.14 M 309.67 63.28 C 310.71 62.1 310.86 61.31 312.95 59.5 M 309.67 63.28 C 310.43 62.55 311.31 61.19 312.95 59.5" fill="none" stroke="rgb(0, 0, 0)" stroke-linejoin="round" stroke-linecap="round" stroke-miterlimit="10" pointer-events="all"/><path d="M 311.25 66.38 M 311.25 66.38 C 310.04 64.89 309.8 63.05 307.76 59.38 M 311.25 66.38 C 310.18 64.49 309.46 63.3 307.76 59.38 M 307.76 59.38 C 309.74 59.11 311.62 59.98 314.76 59.39 M 307.76 59.38 C 309.4 59.5 310.58 59.2 314.76 59.39 M 314.76 59.39 C 314.41 61.18 312.46 63.99 311.25 66.38 M 314.76 59.39 C 313.65 62.2 312.37 64.48 311.25 66.38" fill="none" stroke="rgb(0, 0, 0)" stroke-linejoin="round" stroke-linecap="round" stroke-miterlimit="10" pointer-events="all"/><rect x="180" y="22.5" width="55" height="55" rx="8.25" ry="8.25" fill="none" stroke="none" pointer-events="all"/><path d="M 181.74 24.94 C 181.74 24.94 181.74 24.94 181.74 24.94 M 181.74 24.94 C 181.74 24.94 181.74 24.94 181.74 24.94 M 180.82 32.09 C 181.76 29.94 183 27.8 188.69 23.03 M 180.82 32.09 C 183.07 29.69 186.23 26.25 188.69 23.03 M 181.21 37.73 C 184.67 34.66 189.16 29.59 194.33 22.64 M 181.21 37.73 C 185.18 33 191.3 26.52 194.33 22.64 M 180.95 44.13 C 185.13 40.92 188.59 34.55 199.32 23 M 180.95 44.13 C 187.42 36.88 192.4 32.26 199.32 23 M 181.35 49.77 C 186.85 41.27 196.17 32.63 204.96 22.6 M 181.35 49.77 C 188.94 41.73 196.66 33.22 204.96 22.6 M 181.09 56.17 C 193.15 44.7 205.23 30.86 209.95 22.96 M 181.09 56.17 C 192.13 43.48 202.24 32.11 209.95 22.96 M 180.82 62.57 C 188.55 51.03 199.86 40.12 214.94 23.32 M 180.82 62.57 C 193.35 49 205.1 34.45 214.94 23.32 M 179.91 69.72 C 197.63 50.26 210.29 34.25 220.58 22.93 M 179.91 69.72 C 190.87 57.8 201.15 44.81 220.58 22.93 M 181.61 73.86 C 190.24 64.83 200.7 50.39 225.57 23.29 M 181.61 73.86 C 198.39 56.11 213.66 36.1 225.57 23.29 M 183.98 77.23 C 192.18 67.53 203.8 54.94 229.24 25.16 M 183.98 77.23 C 194.42 63.58 206.57 51.72 229.24 25.16 M 188.96 77.59 C 208.79 56.86 223.38 37.77 234.23 25.52 M 188.96 77.59 C 203.96 61.4 217.05 45.77 234.23 25.52 M 193.95 77.95 C 210.9 61.38 225.71 42.26 235.94 29.65 M 193.95 77.95 C 202.36 66.16 212.58 57.59 235.94 29.65 M 199.59 77.56 C 209.79 63.85 220.24 53.48 238.3 33.03 M 199.59 77.56 C 208.41 67.35 215.04 59.48 238.3 33.03 M 204.58 77.92 C 215.64 63.5 229.57 48.56 238.04 39.43 M 204.58 77.92 C 216.29 63.05 229.88 48.69 238.04 39.43 M 210.22 77.53 C 218.8 68.7 222.86 60.82 237.78 45.83 M 210.22 77.53 C 220.33 67.64 228.12 56.56 237.78 45.83 M 215.21 77.89 C 219.51 70.4 226.34 65.16 238.17 51.47 M 215.21 77.89 C 222.99 68.68 229.7 60.45 238.17 51.47 M 220.2 78.25 C 225.55 72.2 231.33 63.93 237.91 57.87 M 220.2 78.25 C 223.93 72.47 228.47 68.48 237.91 57.87 M 225.84 77.85 C 232.3 72.52 236.3 68.37 238.31 63.51 M 225.84 77.85 C 229.56 74.42 232.1 71.15 238.31 63.51" fill="none" stroke="#c3ba45" stroke-linejoin="round" stroke-linecap="round" stroke-miterlimit="10" pointer-events="all"/><path d="M 188.25 22.5 M 188.25 22.5 C 201.85 22.02 216.28 23.85 226.75 22.5 M 188.25 22.5 C 202.38 21.93 216.62 22.82 226.75 22.5 M 226.75 22.5 C 233.59 21.13 233.94 26.58 235 30.75 M 226.75 22.5 C 231.3 20.71 233.48 27.47 235 30.75 M 235 30.75 C 234.6 42.58 236.84 51.21 235 69.25 M 235 30.75 C 235.22 43.72 234.85 59.26 235 69.25 M 235 69.25 C 236.83 74.72 234.06 77.58 226.75 77.5 M 235 69.25 C 234.95 75.75 231.73 75.99 226.75 77.5 M 226.75 77.5 C 213.08 78.29 203.3 77.11 188.25 77.5 M 226.75 77.5 C 216.25 77.88 205.27 76.95 188.25 77.5 M 188.25 77.5 C 184.55 76.3 179.57 73.7 180 69.25 M 188.25 77.5 C 180.9 75.57 179.84 74.83 180 69.25 M 180 69.25 C 178.11 56.31 180.21 45.07 180 30.75 M 180 69.25 C 179.31 59.86 180.44 50.53 180 30.75 M 180 30.75 C 178.91 25.64 181.22 23.62 188.25 22.5 M 180 30.75 C 181.44 23.04 181.32 21.97 188.25 22.5" fill="none" stroke="#c3ba45" stroke-linejoin="round" stroke-linecap="round" stroke-miterlimit="10" pointer-events="all"/><path d="M 193.75 112.5 L 193.75 85.62" fill="none" stroke="none" pointer-events="stroke"/><path d="M 193.75 78.62 L 197.25 85.62 L 190.25 85.62 Z" fill="none" stroke="none" pointer-events="all"/><path d="M 193.75 112.5 M 193.75 112.5 C 193.66 103.04 193.08 96.26 193.75 85.62 M 193.75 112.5 C 194.38 106.05 192.94 97.15 193.75 85.62" fill="none" stroke="rgb(0, 0, 0)" stroke-linejoin="round" stroke-linecap="round" stroke-miterlimit="10" pointer-events="stroke"/><path d="M 193.51 78.9 C 193.51 78.9 193.51 78.9 193.51 78.9 M 193.51 78.9 C 193.51 78.9 193.51 78.9 193.51 78.9 M 191.94 86.8 C 193.2 85.14 194.18 84.28 195.87 82.28 M 191.94 86.8 C 193.56 85.14 195.14 83.3 195.87 82.28" fill="none" stroke="rgb(0, 0, 0)" stroke-linejoin="round" stroke-linecap="round" stroke-miterlimit="10" pointer-events="all"/><path d="M 193.75 78.62 M 193.75 78.62 C 193.86 79.97 195.36 81.27 197.25 85.62 M 193.75 78.62 C 194.67 80.53 195.8 82.93 197.25 85.62 M 197.25 85.62 C 195.69 85.27 192.62 86 190.25 85.62 M 197.25 85.62 C 195.07 85.74 192.81 85.33 190.25 85.62 M 190.25 85.62 C 191.43 83.48 192 82.38 193.75 78.62 M 190.25 85.62 C 191.52 83.01 192.9 80.82 193.75 78.62" fill="none" stroke="rgb(0, 0, 0)" stroke-linejoin="round" stroke-linecap="round" stroke-miterlimit="10" pointer-events="all"/><rect x="180" y="112.5" width="55" height="55" rx="8.25" ry="8.25" fill="none" stroke="none" pointer-events="all"/><path d="M 182.34 114.24 C 182.34 114.24 182.34 114.24 182.34 114.24 M 182.34 114.24 C 182.34 114.24 182.34 114.24 182.34 114.24 M 181.43 121.39 C 182.4 120.22 185.36 117.23 188.64 113.09 M 181.43 121.39 C 183.97 119.23 184.98 116.16 188.64 113.09 M 181.16 127.79 C 183.53 122.4 189.49 119.42 194.28 112.7 M 181.16 127.79 C 186.71 122.56 192.4 116.35 194.28 112.7 M 180.9 134.19 C 186.33 127.96 192.9 120.42 199.27 113.06 M 180.9 134.19 C 184.92 127.85 189.18 124.1 199.27 113.06 M 181.3 139.83 C 190.55 127.07 198.49 118.12 204.91 112.66 M 181.3 139.83 C 185.4 134.47 190.8 129.62 204.91 112.66 M 181.04 146.23 C 187.45 137.23 197.31 129.79 209.9 113.02 M 181.04 146.23 C 190.38 134.64 200.45 124.82 209.9 113.02 M 181.43 151.87 C 191.58 138.06 202.83 126.92 215.55 112.63 M 181.43 151.87 C 192.65 138.4 204.87 125.57 215.55 112.63 M 179.86 159.78 C 197.94 141.28 212.62 124.55 220.53 112.99 M 179.86 159.78 C 188.99 149.78 197.75 137.35 220.53 112.99 M 181.56 163.91 C 191.52 150.01 205.5 135.43 226.18 112.59 M 181.56 163.91 C 194.37 148.89 205.6 134.99 226.18 112.59 M 183.93 167.29 C 199.67 148.56 217.36 131.95 229.19 115.22 M 183.93 167.29 C 195.47 151.85 207.94 138.1 229.19 115.22 M 188.91 167.65 C 206.82 145.47 224.67 128.47 234.18 115.58 M 188.91 167.65 C 202.82 152.2 216.1 135.53 234.18 115.58 M 193.9 168.01 C 209.17 152.12 221.07 136.55 235.89 119.71 M 193.9 168.01 C 202.34 158.39 210.92 148.26 235.89 119.71 M 199.54 167.62 C 212.56 154.88 224.88 138.93 238.25 123.09 M 199.54 167.62 C 210.18 155.95 220.73 143.08 238.25 123.09 M 204.53 167.98 C 210.29 158.8 221 149.03 237.99 129.49 M 204.53 167.98 C 210.67 160.03 218.67 151.52 237.99 129.49 M 210.17 167.58 C 218.78 159.65 224.57 151.09 237.73 135.89 M 210.17 167.58 C 214.85 160.47 222.06 154.58 237.73 135.89 M 215.16 167.94 C 223 158.99 232.23 148.53 238.12 141.53 M 215.16 167.94 C 220.74 160.76 226.85 156.16 238.12 141.53 M 220.8 167.55 C 226.69 160.75 230.37 157.71 237.86 147.93 M 220.8 167.55 C 223.92 163 228.73 158.31 237.86 147.93 M 225.79 167.91 C 231.72 162.17 236.12 158.36 238.26 153.57 M 225.79 167.91 C 228.78 163.31 234.27 159.6 238.26 153.57" fill="none" stroke="#e68a33" stroke-linejoin="round" stroke-linecap="round" stroke-miterlimit="10" pointer-events="all"/><path d="M 188.25 112.5 M 188.25 112.5 C 201.99 112.74 216.73 113.17 226.75 112.5 M 188.25 112.5 C 201.82 112.63 215.89 112.22 226.75 112.5 M 226.75 112.5 C 231.81 112.85 235.53 113.35 235 120.75 M 226.75 112.5 C 231.57 114.07 234.52 113.57 235 120.75 M 235 120.75 C 236.11 132.78 236.37 146.33 235 159.25 M 235 120.75 C 234.51 129.52 234.97 136.47 235 159.25 M 235 159.25 C 234.21 166.08 231.25 167.3 226.75 167.5 M 235 159.25 C 234.92 164.39 230.51 169.53 226.75 167.5 M 226.75 167.5 C 214.82 165.58 201.2 165.67 188.25 167.5 M 226.75 167.5 C 214.26 167 201.88 168.56 188.25 167.5 M 188.25 167.5 C 182.51 168.93 179.6 164.48 180 159.25 M 188.25 167.5 C 183.81 169.11 181.74 162.9 180 159.25 M 180 159.25 C 180.68 150.33 178.92 139.85 180 120.75 M 180 159.25 C 180.06 150.88 180.53 141.56 180 120.75 M 180 120.75 C 179.13 114.33 183.6 111.93 188.25 112.5 M 180 120.75 C 181.82 115.33 181.14 113.59 188.25 112.5" fill="none" stroke="#e68a33" stroke-linejoin="round" stroke-linecap="round" stroke-miterlimit="10" pointer-events="all"/><path d="M 311.25 122.5 L 311.28 143.8 Q 311.3 153.8 301.3 153.79 L 243.12 153.76" fill="none" stroke="none" pointer-events="stroke"/><path d="M 236.12 153.75 L 243.12 150.26 L 243.12 157.26 Z" fill="none" stroke="none" pointer-events="all"/><path d="M 311.25 122.5 M 311.25 122.5 C 312.25 129.96 312.86 134.87 311.28 143.8 M 311.25 122.5 C 310.84 131.67 311.84 139.37 311.28 143.8 M 311.28 143.8 C 310.38 148.77 308.94 154.66 301.3 153.79 M 311.28 143.8 C 312.04 152.16 307.37 152.06 301.3 153.79 M 301.3 153.79 C 281.14 153.67 259.8 152.27 243.12 153.76 M 301.3 153.79 C 281.6 152.93 263.64 153.1 243.12 153.76" fill="none" stroke="rgb(0, 0, 0)" stroke-linejoin="round" stroke-linecap="round" stroke-miterlimit="10" pointer-events="stroke"/><path d="M 235.82 154.1 C 235.82 154.1 235.82 154.1 235.82 154.1 M 235.82 154.1 C 235.82 154.1 235.82 154.1 235.82 154.1 M 239.49 155.97 C 241.01 154.83 242.39 153.08 244.08 150.69 M 239.49 155.97 C 240.16 155.06 241.59 153.92 244.08 150.69" fill="none" stroke="rgb(0, 0, 0)" stroke-linejoin="round" stroke-linecap="round" stroke-miterlimit="10" pointer-events="all"/><path d="M 236.12 153.75 M 236.12 153.75 C 237.47 152.29 239.21 152.19 243.12 150.26 M 236.12 153.75 C 238.08 152.46 239.6 151.48 243.12 150.26 M 243.12 150.26 C 242.96 152.59 243.36 155.35 243.12 157.26 M 243.12 150.26 C 242.81 152.85 243.34 154.98 243.12 157.26 M 243.12 157.26 C 240.28 156.47 238.67 155.09 236.12 153.75 M 243.12 157.26 C 240.89 156.37 239.05 155.46 236.12 153.75" fill="none" stroke="rgb(0, 0, 0)" stroke-linejoin="round" stroke-linecap="round" stroke-miterlimit="10" pointer-events="all"/><rect x="270" y="67.5" width="55" height="55" rx="8.25" ry="8.25" fill="none" stroke="none" pointer-events="all"/><path d="M 272.34 69.25 C 272.34 69.25 272.34 69.25 272.34 69.25 M 272.34 69.25 C 272.34 69.25 272.34 69.25 272.34 69.25 M 271.42 76.4 C 272.34 73.97 274.93 72.16 278.64 68.1 M 271.42 76.4 C 273.35 74.42 274.67 72.54 278.64 68.1 M 271.16 82.8 C 272.12 79.09 275.55 78.19 284.28 67.7 M 271.16 82.8 C 273.97 80.08 276.59 75.16 284.28 67.7 M 270.9 89.19 C 277.47 84.17 283.48 75.69 289.27 68.06 M 270.9 89.19 C 278.56 81.91 285.77 72.79 289.27 68.06 M 271.29 94.84 C 279.03 87.25 284.87 79.43 294.91 67.67 M 271.29 94.84 C 278.62 86.26 286.44 77.62 294.91 67.67 M 271.03 101.23 C 281.58 87.5 290.98 75.82 299.9 68.03 M 271.03 101.23 C 280.01 90.76 288.04 80.49 299.9 68.03 M 271.43 106.88 C 277.18 97.96 285.55 90.45 305.54 67.63 M 271.43 106.88 C 282.13 93.5 294.81 80.4 305.54 67.63 M 270.51 114.03 C 287.77 97.59 300.2 76.44 310.53 67.99 M 270.51 114.03 C 285.71 94.9 300.81 77.98 310.53 67.99 M 271.56 118.92 C 287.73 103.41 301.09 84.84 316.17 67.6 M 271.56 118.92 C 288.09 98.63 305.96 78.84 316.17 67.6 M 273.92 122.3 C 288.16 108.05 298.86 93.84 319.19 70.22 M 273.92 122.3 C 287.6 105.97 302.4 90.33 319.19 70.22 M 278.91 122.66 C 293.85 103.04 314.97 84.13 324.18 70.58 M 278.91 122.66 C 292.77 105.95 308.24 90.24 324.18 70.58 M 283.9 123.02 C 296.52 107.8 305.5 95.78 325.88 74.72 M 283.9 123.02 C 291.4 112.73 300.33 103.03 325.88 74.72 M 289.54 122.62 C 301.38 106.87 315.57 89.32 328.25 78.1 M 289.54 122.62 C 303.11 106.72 317.57 90.85 328.25 78.1 M 294.53 122.98 C 306.45 112.02 316.62 99.71 327.98 84.49 M 294.53 122.98 C 301.8 114.26 310.89 103.91 327.98 84.49 M 300.17 122.59 C 309.44 112.1 316.96 102.86 327.72 90.89 M 300.17 122.59 C 306.92 113.9 315.07 106.87 327.72 90.89 M 305.16 122.95 C 311.41 113.82 318.45 107.41 328.12 96.53 M 305.16 122.95 C 312.59 114.96 320.7 104.72 328.12 96.53 M 310.8 122.55 C 313.43 119.09 319.25 113.01 327.86 102.93 M 310.8 122.55 C 315.47 119.05 318.72 113.45 327.86 102.93 M 315.79 122.91 C 321.18 116.76 325.99 113.3 328.25 108.57 M 315.79 122.91 C 320.23 117.15 324.87 111.1 328.25 108.57" fill="none" stroke="#d92120" stroke-linejoin="round" stroke-linecap="round" stroke-miterlimit="10" pointer-events="all"/><path d="M 278.25 67.5 M 278.25 67.5 C 288.43 67.69 295.79 66.72 316.75 67.5 M 278.25 67.5 C 291.27 67.1 303.16 67.39 316.75 67.5 M 316.75 67.5 C 324.03 65.57 323.13 69.13 325 75.75 M 316.75 67.5 C 321.85 67.83 325.56 69.28 325 75.75 M 325 75.75 C 326.85 84.27 325.13 91.05 325 114.25 M 325 75.75 C 325.02 86.03 324.33 96.09 325 114.25 M 325 114.25 C 325.58 118.43 322.44 122.01 316.75 122.5 M 325 114.25 C 324.89 118.02 323.89 123.47 316.75 122.5 M 316.75 122.5 C 302.56 121.86 293.11 123.22 278.25 122.5 M 316.75 122.5 C 302.27 123.12 288.5 123.16 278.25 122.5 M 278.25 122.5 C 274.47 122.56 269.64 120.26 270 114.25 M 278.25 122.5 C 272.11 123.05 269.04 120.56 270 114.25 M 270 114.25 C 269.24 101.66 271.63 88.24 270 75.75 M 270 114.25 C 269.57 104.91 269.38 95.6 270 75.75 M 270 75.75 C 269.34 72.02 271.99 69.23 278.25 67.5 M 270 75.75 C 272.2 68.02 270.96 65.6 278.25 67.5" fill="none" stroke="#d92120" stroke-linejoin="round" stroke-linecap="round" stroke-miterlimit="10" pointer-events="all"/><path d="M 66.25 38.75 L 91.88 38.75" fill="none" stroke="none" pointer-events="stroke"/><path d="M 98.88 38.75 L 91.88 42.25 L 91.88 35.25 Z" fill="none" stroke="none" pointer-events="all"/><path d="M 66.25 38.75 M 66.25 38.75 C 73.45 37.01 84.15 39.29 91.88 38.75 M 66.25 38.75 C 74.99 37.75 83.94 39.38 91.88 38.75" fill="none" stroke="rgb(0, 0, 0)" stroke-linejoin="round" stroke-linecap="round" stroke-miterlimit="10" pointer-events="stroke"/><path d="M 91.71 35.45 C 91.71 35.45 91.71 35.45 91.71 35.45 M 91.71 35.45 C 91.71 35.45 91.71 35.45 91.71 35.45 M 92.1 41.09 C 93.21 40.14 93.85 38.95 95.38 37.32 M 92.1 41.09 C 93.25 39.73 94.71 38.23 95.38 37.32" fill="none" stroke="rgb(0, 0, 0)" stroke-linejoin="round" stroke-linecap="round" stroke-miterlimit="10" pointer-events="all"/><path d="M 98.88 38.75 M 98.88 38.75 C 96.94 40.4 94.27 42.1 91.88 42.25 M 98.88 38.75 C 96.78 39.7 94.06 40.76 91.88 42.25 M 91.88 42.25 C 92.08 40.09 91.44 38.23 91.88 35.25 M 91.88 42.25 C 92.12 40.5 92.06 38.93 91.88 35.25 M 91.88 35.25 C 93.62 36.61 95.89 37.45 98.88 38.75 M 91.88 35.25 C 94.15 36.11 95.36 37.03 98.88 38.75" fill="none" stroke="rgb(0, 0, 0)" stroke-linejoin="round" stroke-linecap="round" stroke-miterlimit="10" pointer-events="all"/><rect x="21.25" y="27.5" width="45" height="45" rx="6.75" ry="6.75" fill="none" stroke="none" pointer-events="all"/><path d="M 23.19 28.89 C 23.19 28.89 23.19 28.89 23.19 28.89 M 23.19 28.89 C 23.19 28.89 23.19 28.89 23.19 28.89 M 22.93 35.29 C 25.57 34.08 27.39 31.76 28.84 28.5 M 22.93 35.29 C 24 33.71 25.35 32.23 28.84 28.5 M 22.67 41.69 C 28.51 37.16 31.68 31.9 34.48 28.1 M 22.67 41.69 C 26.89 38.79 28.86 34.6 34.48 28.1 M 22.41 48.09 C 26.22 44.64 31.35 39.6 39.47 28.46 M 22.41 48.09 C 29.17 42.24 35.19 34.52 39.47 28.46 M 22.8 53.73 C 29.84 46.41 37.83 34.81 45.11 28.07 M 22.8 53.73 C 26.37 48.15 31.61 43.47 45.11 28.07 M 22.54 60.13 C 30.48 52.66 37.32 43.76 50.1 28.43 M 22.54 60.13 C 29.49 51.16 37.13 42.84 50.1 28.43 M 22.28 66.53 C 30.28 55.55 42.39 44.04 55.74 28.04 M 22.28 66.53 C 33.48 53.49 44.41 42.35 55.74 28.04 M 23.33 71.41 C 39.92 53.11 53.35 36.42 60.73 28.4 M 23.33 71.41 C 36.67 55.3 51.31 40.01 60.73 28.4 M 27.66 72.53 C 42.36 55.39 56.4 39.92 65.06 29.51 M 27.66 72.53 C 38.89 60.53 50.36 47.54 65.06 29.51 M 30.68 75.15 C 37.46 64.63 47.16 55.13 66.76 33.64 M 30.68 75.15 C 42.42 62.45 54.53 48.37 66.76 33.64 M 36.32 74.76 C 48.7 58.32 60.35 46.93 69.13 37.02 M 36.32 74.76 C 47.97 63.34 57.6 51.23 69.13 37.02 M 41.31 75.12 C 48.2 69.03 55.09 60.22 69.52 42.67 M 41.31 75.12 C 51.8 62.79 64.06 50.12 69.52 42.67 M 46.95 74.72 C 55.89 63.5 65.46 55.82 69.26 49.06 M 46.95 74.72 C 52.14 68.37 57.11 62.6 69.26 49.06 M 51.94 75.08 C 59.68 68.97 63.08 61.31 69 55.46 M 51.94 75.08 C 55.94 68.79 61.59 63.8 69 55.46 M 57.58 74.69 C 61.9 71.15 66.16 66.91 69.39 61.1 M 57.58 74.69 C 61.75 70.27 65.69 65.98 69.39 61.1" fill="none" stroke="#781c81" stroke-linejoin="round" stroke-linecap="round" stroke-miterlimit="10" pointer-events="all"/><path d="M 28 27.5 M 28 27.5 C 40.95 26.73 53.59 29 59.5 27.5 M 28 27.5 C 35.47 28.29 43.17 26.45 59.5 27.5 M 59.5 27.5 C 64.64 28.36 66.66 30.96 66.25 34.25 M 59.5 27.5 C 61.88 26.25 65.83 31.76 66.25 34.25 M 66.25 34.25 C 64.92 41.38 67.28 52.28 66.25 65.75 M 66.25 34.25 C 65.85 46.08 67.05 56.92 66.25 65.75 M 66.25 65.75 C 64.61 69.39 63.42 72.49 59.5 72.5 M 66.25 65.75 C 64.68 71.37 62.91 72.34 59.5 72.5 M 59.5 72.5 C 51.22 70.81 45.51 72.21 28 72.5 M 59.5 72.5 C 47.8 72.31 35.36 72.59 28 72.5 M 28 72.5 C 23.22 72.15 21.14 69.46 21.25 65.75 M 28 72.5 C 25.11 72.24 21.16 68.82 21.25 65.75 M 21.25 65.75 C 20.57 55.26 21.89 40.93 21.25 34.25 M 21.25 65.75 C 21.84 55.7 22.02 45.5 21.25 34.25 M 21.25 34.25 C 22.63 28.97 23.38 28.81 28 27.5 M 21.25 34.25 C 21.68 29.66 24.03 27.25 28 27.5" fill="none" stroke="#781c81" stroke-linejoin="round" stroke-linecap="round" stroke-miterlimit="10" pointer-events="all"/><path d="M 100 61.25 L 74.37 61.25" fill="none" stroke="none" pointer-events="stroke"/><path d="M 67.37 61.25 L 74.37 57.75 L 74.37 64.75 Z" fill="none" stroke="none" pointer-events="all"/><path d="M 100 61.25 M 100 61.25 C 93.16 62.49 81.77 60.97 74.37 61.25 M 100 61.25 C 93.59 60.77 89.76 61.61 74.37 61.25" fill="none" stroke="rgb(0, 0, 0)" stroke-linejoin="round" stroke-linecap="round" stroke-miterlimit="10" pointer-events="stroke"/><path d="M 67.66 60.92 C 67.66 60.92 67.66 60.92 67.66 60.92 M 67.66 60.92 C 67.66 60.92 67.66 60.92 67.66 60.92 M 71.33 62.79 C 72.63 60.88 74.4 60.1 75.27 58.26 M 71.33 62.79 C 72.97 61.17 74.3 59.42 75.27 58.26" fill="none" stroke="rgb(0, 0, 0)" stroke-linejoin="round" stroke-linecap="round" stroke-miterlimit="10" pointer-events="all"/><path d="M 67.37 61.25 M 67.37 61.25 C 70.17 60.78 71.69 59.01 74.37 57.75 M 67.37 61.25 C 70.09 59.79 72.88 58.64 74.37 57.75 M 74.37 57.75 C 74.07 58.81 75.02 60.82 74.37 64.75 M 74.37 57.75 C 74.08 59.24 74.08 60.88 74.37 64.75 M 74.37 64.75 C 71.8 62.89 69.38 61.92 67.37 61.25 M 74.37 64.75 C 71.7 63.28 69.26 62.32 67.37 61.25" fill="none" stroke="rgb(0, 0, 0)" stroke-linejoin="round" stroke-linecap="round" stroke-miterlimit="10" pointer-events="all"/><path d="M 133.75 72.5 L 133.75 109.38" fill="none" stroke="none" pointer-events="stroke"/><path d="M 133.75 116.38 L 130.25 109.38 L 137.25 109.38 Z" fill="none" stroke="none" pointer-events="all"/><path d="M 133.75 72.5 M 133.75 72.5 C 135.15 85.85 135.51 97.29 133.75 109.38 M 133.75 72.5 C 133.35 83.85 133.36 94.77 133.75 109.38" fill="none" stroke="rgb(0, 0, 0)" stroke-linejoin="round" stroke-linecap="round" stroke-miterlimit="10" pointer-events="stroke"/><path d="M 129.93 109.75 C 129.93 109.75 129.93 109.75 129.93 109.75 M 129.93 109.75 C 129.93 109.75 129.93 109.75 129.93 109.75 M 132.29 113.13 C 132.84 111.94 133.98 111.18 135.57 109.36 M 132.29 113.13 C 133.04 111.92 133.71 111.11 135.57 109.36" fill="none" stroke="rgb(0, 0, 0)" stroke-linejoin="round" stroke-linecap="round" stroke-miterlimit="10" pointer-events="all"/><path d="M 133.75 116.38 M 133.75 116.38 C 131.93 113.07 131.29 110.58 130.25 109.38 M 133.75 116.38 C 132.18 114.02 131.09 111.59 130.25 109.38 M 130.25 109.38 C 133.17 108.96 136.01 109.29 137.25 109.38 M 130.25 109.38 C 131.64 109.32 133.38 109.28 137.25 109.38 M 137.25 109.38 C 135.89 112.2 134.9 112.8 133.75 116.38 M 137.25 109.38 C 135.71 112.09 134.68 114.84 133.75 116.38" fill="none" stroke="rgb(0, 0, 0)" stroke-linejoin="round" stroke-linecap="round" stroke-miterlimit="10" pointer-events="all"/><rect x="100" y="27.5" width="45" height="45" rx="6.75" ry="6.75" fill="none" stroke="none" pointer-events="all"/><path d="M 101.51 29.4 C 101.51 29.4 101.51 29.4 101.51 29.4 M 101.51 29.4 C 101.51 29.4 101.51 29.4 101.51 29.4 M 101.25 35.79 C 103.89 33.66 105.85 30.66 107.81 28.25 M 101.25 35.79 C 102.77 34.17 104.38 31.1 107.81 28.25 M 101.64 41.44 C 102.83 39.7 106.42 35.25 112.79 28.61 M 101.64 41.44 C 104.79 37.3 107.33 34.59 112.79 28.61 M 101.38 47.83 C 103.89 45.03 108.18 39.27 118.44 28.21 M 101.38 47.83 C 108.63 40.49 114.98 33.07 118.44 28.21 M 101.77 53.48 C 106.91 44.53 114.23 40 123.42 28.57 M 101.77 53.48 C 108.61 46.18 116.01 37.77 123.42 28.57 M 101.51 59.87 C 111.83 51.5 119.79 38.85 129.07 28.18 M 101.51 59.87 C 112.4 48.24 122.47 36.46 129.07 28.18 M 101.25 66.27 C 109.35 56.56 112.89 49.73 134.05 28.54 M 101.25 66.27 C 113.73 51.86 125.44 38.34 134.05 28.54 M 102.3 71.16 C 116.21 58.56 127.39 41.81 139.7 28.14 M 102.3 71.16 C 114.77 59.07 124.86 46.04 139.7 28.14 M 106.63 72.28 C 114.87 62.46 121.3 53.28 144.03 29.26 M 106.63 72.28 C 118.14 59 129.64 47.53 144.03 29.26 M 109.65 74.9 C 119 64.09 125.89 55.27 145.08 34.15 M 109.65 74.9 C 120.04 63.65 130.11 52.08 145.08 34.15 M 114.64 75.26 C 125.56 65.19 134.67 53.85 148.1 36.77 M 114.64 75.26 C 126.73 62.14 139.51 47.96 148.1 36.77 M 120.28 74.87 C 128.13 64.92 138.98 51.81 147.84 43.17 M 120.28 74.87 C 126.74 67.03 133.97 59.92 147.84 43.17 M 125.27 75.23 C 132.87 64.57 143.35 54.18 148.23 48.81 M 125.27 75.23 C 133.9 65.1 141.2 56.15 148.23 48.81 M 130.91 74.83 C 135.04 70.52 142.03 63.61 147.97 55.21 M 130.91 74.83 C 136.38 68.91 140.95 62.87 147.97 55.21 M 135.9 75.19 C 137.06 73.23 141.82 69.89 147.71 61.61 M 135.9 75.19 C 139.08 70.65 142.68 67.09 147.71 61.61" fill="none" stroke="#3f51a3" stroke-linejoin="round" stroke-linecap="round" stroke-miterlimit="10" pointer-events="all"/><path d="M 106.75 27.5 M 106.75 27.5 C 115.63 27.49 127.86 27.9 138.25 27.5 M 106.75 27.5 C 119.31 27.1 130.82 27.37 138.25 27.5 M 138.25 27.5 C 143.79 27.6 146.78 28.57 145 34.25 M 138.25 27.5 C 141.33 27.83 144.69 29.5 145 34.25 M 145 34.25 C 145.25 41.16 146.83 45.79 145 65.75 M 145 34.25 C 145.45 42.69 145.12 51.07 145 65.75 M 145 65.75 C 143.07 68.31 144.28 71.57 138.25 72.5 M 145 65.75 C 145.77 71.35 140.46 73.27 138.25 72.5 M 138.25 72.5 C 130.14 72.14 117.86 72.84 106.75 72.5 M 138.25 72.5 C 128.7 71.94 119.83 73.08 106.75 72.5 M 106.75 72.5 C 102.49 71.11 100.63 69.77 100 65.75 M 106.75 72.5 C 104.33 74.7 99.16 71.64 100 65.75 M 100 65.75 C 100.95 54.3 100.69 43.06 100 34.25 M 100 65.75 C 99.34 55.27 100.48 45.74 100 34.25 M 100 34.25 C 101.19 31.34 103.78 29.42 106.75 27.5 M 100 34.25 C 99.41 31.75 101.98 29.54 106.75 27.5" fill="none" stroke="#3f51a3" stroke-linejoin="round" stroke-linecap="round" stroke-miterlimit="10" pointer-events="all"/><path d="M 74.37 151.25 L 100 151.25" fill="none" stroke="none" pointer-events="stroke"/><path d="M 67.37 151.25 L 74.37 147.75 L 74.37 154.75 Z" fill="none" stroke="none" pointer-events="all"/><path d="M 74.37 151.25 M 74.37 151.25 C 82.15 150.5 89.31 149.38 100 151.25 M 74.37 151.25 C 83.11 150.94 93.19 152.22 100 151.25" fill="none" stroke="rgb(0, 0, 0)" stroke-linejoin="round" stroke-linecap="round" stroke-miterlimit="10" pointer-events="stroke"/><path d="M 67.61 150.98 C 67.61 150.98 67.61 150.98 67.61 150.98 M 67.61 150.98 C 67.61 150.98 67.61 150.98 67.61 150.98 M 71.28 152.85 C 71.91 151.67 73.69 150.68 75.22 148.32 M 71.28 152.85 C 72.25 151.35 73.92 150.29 75.22 148.32" fill="none" stroke="rgb(0, 0, 0)" stroke-linejoin="round" stroke-linecap="round" stroke-miterlimit="10" pointer-events="all"/><path d="M 67.37 151.25 M 67.37 151.25 C 69.16 150.35 71.69 150.02 74.37 147.75 M 67.37 151.25 C 69.5 150.29 71.48 149.46 74.37 147.75 M 74.37 147.75 C 74.34 149.37 74.26 151.81 74.37 154.75 M 74.37 147.75 C 74.51 149.9 74.62 152.15 74.37 154.75 M 74.37 154.75 C 71.9 152.78 68.88 151.8 67.37 151.25 M 74.37 154.75 C 71.61 153.86 69.23 152.05 67.37 151.25" fill="none" stroke="rgb(0, 0, 0)" stroke-linejoin="round" stroke-linecap="round" stroke-miterlimit="10" pointer-events="all"/><path d="M 32.5 117.5 L 32.5 80.62" fill="none" stroke="none" pointer-events="stroke"/><path d="M 32.5 73.62 L 36 80.62 L 29 80.62 Z" fill="none" stroke="none" pointer-events="all"/><path d="M 32.5 117.5 M 32.5 117.5 C 30.39 103.56 31.92 94.48 32.5 80.62 M 32.5 117.5 C 33.56 108.88 32 100.82 32.5 80.62" fill="none" stroke="rgb(0, 0, 0)" stroke-linejoin="round" stroke-linecap="round" stroke-miterlimit="10" pointer-events="stroke"/><path d="M 32.27 73.88 C 32.27 73.88 32.27 73.88 32.27 73.88 M 32.27 73.88 C 32.27 73.88 32.27 73.88 32.27 73.88 M 30.7 81.79 C 31.3 81.13 32.87 79.58 34.63 77.26 M 30.7 81.79 C 31.93 80.32 33.17 79.3 34.63 77.26" fill="none" stroke="rgb(0, 0, 0)" stroke-linejoin="round" stroke-linecap="round" stroke-miterlimit="10" pointer-events="all"/><path d="M 32.5 73.62 M 32.5 73.62 C 32.98 75.71 33.67 76.86 36 80.62 M 32.5 73.62 C 33.55 75.8 34.36 77.62 36 80.62 M 36 80.62 C 33.93 80.28 32.47 79.98 29 80.62 M 36 80.62 C 33.82 80.51 32.15 80.52 29 80.62 M 29 80.62 C 30.37 79.11 30.9 76.9 32.5 73.62 M 29 80.62 C 30.06 79.01 31.21 76.99 32.5 73.62" fill="none" stroke="rgb(0, 0, 0)" stroke-linejoin="round" stroke-linecap="round" stroke-miterlimit="10" pointer-events="all"/><rect x="21.25" y="117.5" width="45" height="45" rx="6.75" ry="6.75" fill="none" stroke="none" pointer-events="all"/><path d="M 23.14 118.95 C 23.14 118.95 23.14 118.95 23.14 118.95 M 23.14 118.95 C 23.14 118.95 23.14 118.95 23.14 118.95 M 22.88 125.35 C 25.35 122.28 26.81 120.55 28.79 118.56 M 22.88 125.35 C 24.65 123.92 25.46 122.13 28.79 118.56 M 22.62 131.75 C 25.26 125.12 32.74 123.16 34.43 118.16 M 22.62 131.75 C 25.85 126.91 29.94 122.49 34.43 118.16 M 23.01 137.39 C 30.34 132.05 33.33 125.61 39.42 118.52 M 23.01 137.39 C 27.68 131.47 33.15 125.1 39.42 118.52 M 22.75 143.79 C 31.73 134.47 37.76 125.52 45.06 118.13 M 22.75 143.79 C 28.43 138.33 31.86 133.19 45.06 118.13 M 22.49 150.19 C 32.82 137.21 44.21 124.45 50.05 118.49 M 22.49 150.19 C 31.72 139.61 41.8 129.33 50.05 118.49 M 22.23 156.58 C 32.85 144.49 40.41 133.34 55.69 118.09 M 22.23 156.58 C 34.42 141.99 46.84 129.91 55.69 118.09 M 23.28 161.47 C 37.53 146.6 46.73 133.12 60.68 118.45 M 23.28 161.47 C 34.04 149.18 42.7 138.6 60.68 118.45 M 27.61 162.59 C 37.6 151.7 47.02 138.98 65.01 119.57 M 27.61 162.59 C 34.55 153.59 42.41 143.75 65.01 119.57 M 30.63 165.21 C 46.48 149.82 58.4 134.17 66.71 123.7 M 30.63 165.21 C 42.13 152.26 52.47 138.84 66.71 123.7 M 36.27 164.82 C 45.08 152.7 57.34 143.59 69.08 127.08 M 36.27 164.82 C 47.14 150.78 59.82 137.89 69.08 127.08 M 41.26 165.18 C 52.06 155.07 56.83 144.55 69.47 132.72 M 41.26 165.18 C 47.27 159.01 53.1 150.05 69.47 132.72 M 46.9 164.78 C 52.04 157.37 54.97 155.61 69.21 139.12 M 46.9 164.78 C 52.72 159.78 58.06 152.59 69.21 139.12 M 51.89 165.14 C 56.88 155.95 66.13 147.9 68.95 145.52 M 51.89 165.14 C 57.95 159.03 63.06 151.77 68.95 145.52 M 57.53 164.75 C 58.79 160.76 61.2 157.16 69.34 151.16 M 57.53 164.75 C 61.84 159.73 65.48 154.27 69.34 151.16" fill="none" stroke="#519cb8" stroke-linejoin="round" stroke-linecap="round" stroke-miterlimit="10" pointer-events="all"/><path d="M 28 117.5 M 28 117.5 C 34.84 119.37 44.06 117.31 59.5 117.5 M 28 117.5 C 37.38 116.65 45.53 118.18 59.5 117.5 M 59.5 117.5 C 63.66 117.83 65.28 120.52 66.25 124.25 M 59.5 117.5 C 64.58 119.29 67.49 118.97 66.25 124.25 M 66.25 124.25 C 68.17 128.94 67.03 136.03 66.25 155.75 M 66.25 124.25 C 66.54 132.85 66.36 142.24 66.25 155.75 M 66.25 155.75 C 66.95 162.06 62.12 161.71 59.5 162.5 M 66.25 155.75 C 67.6 158.85 62.5 163.91 59.5 162.5 M 59.5 162.5 C 52.59 161.09 45.22 163.04 28 162.5 M 59.5 162.5 C 46.75 161.4 34.4 161.65 28 162.5 M 28 162.5 C 25.33 161.88 22.12 158.69 21.25 155.75 M 28 162.5 C 22.02 160.8 22.08 159.85 21.25 155.75 M 21.25 155.75 C 21.1 144.03 22.86 132.56 21.25 124.25 M 21.25 155.75 C 20.53 146.35 20.83 135.73 21.25 124.25 M 21.25 124.25 C 19.63 121.05 25 118.24 28 117.5 M 21.25 124.25 C 19.45 120.69 23.32 117.65 28 117.5" fill="none" stroke="#519cb8" stroke-linejoin="round" stroke-linecap="round" stroke-miterlimit="10" pointer-events="all"/><path d="M 91.88 128.75 L 66.25 128.75" fill="none" stroke="none" pointer-events="stroke"/><path d="M 98.88 128.75 L 91.88 132.25 L 91.88 125.25 Z" fill="none" stroke="none" pointer-events="all"/><path d="M 91.88 128.75 M 91.88 128.75 C 83.89 129.26 75.33 127.94 66.25 128.75 M 91.88 128.75 C 84.82 128.12 76.73 128.18 66.25 128.75" fill="none" stroke="rgb(0, 0, 0)" stroke-linejoin="round" stroke-linecap="round" stroke-miterlimit="10" pointer-events="stroke"/><path d="M 91.66 125.51 C 91.66 125.51 91.66 125.51 91.66 125.51 M 91.66 125.51 C 91.66 125.51 91.66 125.51 91.66 125.51 M 92.05 131.15 C 93.18 129.99 94.49 127.87 95.33 127.38 M 92.05 131.15 C 93.14 129.89 94.39 128.47 95.33 127.38" fill="none" stroke="rgb(0, 0, 0)" stroke-linejoin="round" stroke-linecap="round" stroke-miterlimit="10" pointer-events="all"/><path d="M 98.88 128.75 M 98.88 128.75 C 96.99 129.48 94.85 130.52 91.88 132.25 M 98.88 128.75 C 97.04 129.43 95.94 129.98 91.88 132.25 M 91.88 132.25 C 92.39 129.5 92.13 126.94 91.88 125.25 M 91.88 132.25 C 91.73 129.72 91.79 127.32 91.88 125.25 M 91.88 125.25 C 93.07 126.44 95.65 126.94 98.88 128.75 M 91.88 125.25 C 94.03 125.89 95.28 127.51 98.88 128.75" fill="none" stroke="rgb(0, 0, 0)" stroke-linejoin="round" stroke-linecap="round" stroke-miterlimit="10" pointer-events="all"/><rect x="100" y="117.5" width="45" height="45" rx="6.75" ry="6.75" fill="none" stroke="none" pointer-events="all"/><path d="M 101.46 119.45 C 101.46 119.45 101.46 119.45 101.46 119.45 M 101.46 119.45 C 101.46 119.45 101.46 119.45 101.46 119.45 M 101.2 125.85 C 103.89 123.3 105.17 120.44 107.76 118.3 M 101.2 125.85 C 102.75 124.43 103.93 122.52 107.76 118.3 M 101.59 131.49 C 106.55 126.67 108.07 123.19 112.74 118.66 M 101.59 131.49 C 105.99 126.5 109.48 122.55 112.74 118.66 M 101.33 137.89 C 106.53 133.4 113.27 125.65 118.39 118.27 M 101.33 137.89 C 106.23 132.57 111.26 126.74 118.39 118.27 M 101.72 143.53 C 105.7 135.39 113.62 131.58 123.37 118.63 M 101.72 143.53 C 108.3 135.7 115.8 127.17 123.37 118.63 M 101.46 149.93 C 110.29 142.68 115.6 132.15 129.02 118.23 M 101.46 149.93 C 109.03 140.41 117.12 131.63 129.02 118.23 M 101.2 156.33 C 113.97 142.28 125.19 131.22 134 118.59 M 101.2 156.33 C 112.64 144.09 125.3 129.99 134 118.59 M 102.25 161.22 C 115.98 147.32 127.2 133.12 139.65 118.2 M 102.25 161.22 C 111.31 150.74 120.54 140.6 139.65 118.2 M 106.58 162.33 C 118.32 147.12 130.74 134.85 143.98 119.31 M 106.58 162.33 C 118.42 149.76 130.14 134.95 143.98 119.31 M 109.6 164.96 C 120.36 150.42 133.73 140.67 145.03 124.2 M 109.6 164.96 C 121.8 150.77 134.01 137.98 145.03 124.2 M 114.59 165.32 C 124.91 155.39 132.68 144.07 148.05 126.83 M 114.59 165.32 C 127.47 151.81 140.53 135.66 148.05 126.83 M 120.23 164.92 C 128.93 155.12 135.23 147.64 147.79 133.23 M 120.23 164.92 C 126.13 158.2 132.27 151.73 147.79 133.23 M 125.22 165.28 C 129.26 159.97 137.51 153.25 148.18 138.87 M 125.22 165.28 C 131.64 157.31 139.92 148.23 148.18 138.87 M 130.86 164.89 C 136.9 159.09 141.01 153.81 147.92 145.27 M 130.86 164.89 C 137.5 158.58 143.16 150.11 147.92 145.27 M 135.85 165.25 C 140.78 162.45 140.86 158.38 148.31 150.91 M 135.85 165.25 C 139.09 162.32 142.37 159.31 148.31 150.91" fill="none" stroke="#83ba6d" stroke-linejoin="round" stroke-linecap="round" stroke-miterlimit="10" pointer-events="all"/><path d="M 106.75 117.5 M 106.75 117.5 C 117.84 116.63 130.35 116.09 138.25 117.5 M 106.75 117.5 C 119.26 116.83 132.33 117.62 138.25 117.5 M 138.25 117.5 C 141.02 118.07 145.29 118.48 145 124.25 M 138.25 117.5 C 140.73 116.15 143.18 118.43 145 124.25 M 145 124.25 C 143.95 130.72 144.09 136.26 145 155.75 M 145 124.25 C 145.14 133.02 145.09 141.41 145 155.75 M 145 155.75 C 144.34 161.82 141.45 161.86 138.25 162.5 M 145 155.75 C 146.93 160.95 142.03 164.55 138.25 162.5 M 138.25 162.5 C 130.23 164.05 117.48 163.25 106.75 162.5 M 138.25 162.5 C 128.59 163.48 121.07 162.84 106.75 162.5 M 106.75 162.5 C 101.68 162.65 101.11 161.61 100 155.75 M 106.75 162.5 C 101.81 161.51 97.9 158.06 100 155.75 M 100 155.75 C 98.75 143.76 98.54 132.06 100 124.25 M 100 155.75 C 100.59 147.43 100.05 137.72 100 124.25 M 100 124.25 C 99.56 120.76 103.72 117.05 106.75 117.5 M 100 124.25 C 101.58 119.63 102.15 115.76 106.75 117.5" fill="none" stroke="#83ba6d" stroke-linejoin="round" stroke-linecap="round" stroke-miterlimit="10" pointer-events="all"/></g></svg>